PathFileType	4	(X/Y/Z)	C:/Users/opensim2020/Desktop/walking_exp_matlab/subject03_walking17_run.trc																																																																																																																																																				
DataRate	CameraRate	NumFrames	NumMarkers	Units	OrigDataRate	OrigDataStartFrame	OrigNumFrames																																																																																																																																																
100	100	8	50	mm	100	237	132																																																																																																																																																
Frame#	Time	RTOE			LTHI			RWRB			LTIB			RELB			RUPA			RKNE			RTHI			RASI			RFRM			RWRA			RSHO			STRN			LFRM			CLAV			LWRB			LASI			RFHD			LFIN			LSHO			RTIB			LWRA			RBHD			LHEE			RANK			RHEE			C7			RFIN			LBHD			LUPA			LTOE			RBAK			LELB			LFHD			RPSI			LPSI			T10			LKNE			LANK			*39			*40			*41			*42			*43			*44			*45			*46			*47			*48			*49		
		X1	Y1	Z1	X2	Y2	Z2	X3	Y3	Z3	X4	Y4	Z4	X5	Y5	Z5	X6	Y6	Z6	X7	Y7	Z7	X8	Y8	Z8	X9	Y9	Z9	X10	Y10	Z10	X11	Y11	Z11	X12	Y12	Z12	X13	Y13	Z13	X14	Y14	Z14	X15	Y15	Z15	X16	Y16	Z16	X17	Y17	Z17	X18	Y18	Z18	X19	Y19	Z19	X20	Y20	Z20	X21	Y21	Z21	X22	Y22	Z22	X23	Y23	Z23	X24	Y24	Z24	X25	Y25	Z25	X26	Y26	Z26	X27	Y27	Z27	X28	Y28	Z28	X29	Y29	Z29	X30	Y30	Z30	X31	Y31	Z31	X32	Y32	Z32	X33	Y33	Z33	X34	Y34	Z34	X35	Y35	Z35	X36	Y36	Z36	X37	Y37	Z37	X38	Y38	Z38	X39	Y39	Z39	X40	Y40	Z40	X41	Y41	Z41	X42	Y42	Z42	X43	Y43	Z43	X44	Y44	Z44	X45	Y45	Z45	X46	Y46	Z46	X47	Y47	Z47	X48	Y48	Z48	X49	Y49	Z49	X50	Y50	Z50
																																																																																																																																																							
34	0.33	-772.26892	96.10867	298.14133	-855.5423	580.87427	55.66774	-873.83618	888.15601	458.26596	-1012.40424	256.10693	99.49969	-967.34491	1094.76746	471.26331	-926.08691	1184.95679	446.52573	-584.13385	502.27802	353.50815	-715.65607	622.73419	382.67255	-767.53931	871.80035	345.17877	-911.60736	978.64862	465.78778	-839.11438	917.71588	430.52994	-788.43597	1334.14355	357.59464	-670.36273	1108.5282	233.5166	-603.1814	1064.63452	32.71405	-696.36115	1281.34302	225.6526	-523.79254	1068.04932	105.249	-760.29596	869.69293	110.3961	-734.21729	1570.86731	296.71521	-475.00369	1042.9043	174.96236	-718.15149	1324.11829	66.30352	-701.06885	360.48044	351.09378	-559.95093	1082.94019	148.2682	-835.5119	1491.83691	271.08527	-1203.89355	95.79903	187.48077	-855.68939	207.81429	310.47864	-912.69934	208.6114	258.53815	-820.94061	1354.50061	184.46613	-814.07074	848.04675	462.01395	-809.22015	1495.21765	142.83192	-702.56732	1149.1665	-33.49584	-1025.63684	32.65118	158.71494	-902.05823	1205.03992	272.2388	-679.22687	1052.24719	-45.81993	-703.0343	1574.65393	166.787	-919.91083	925.38147	305.04346	-916.00659	925.25995	157.21873	-889.54095	1058.03979	212.55354	-870.49194	401.36667	87.61043	-1149.78577	105.11784	147.56696	NaN	NaN	NaN	NaN	NaN	NaN	-809.76019	1603.26453	198.03227	NaN	NaN	NaN	NaN	NaN	NaN	NaN	NaN	NaN	NaN	NaN	NaN	NaN	NaN	NaN	NaN	NaN	NaN	NaN	NaN	NaN	NaN	NaN	NaN
35	0.34	-686.62738	87.9254	297.53992	-830.8609	587.65607	57.18452	-847.31213	901.54962	457.70526	-1002.77374	267.46951	99.22448	-941.31207	1108.17249	469.29282	-898.06	1196.8678	444.70569	-544.73688	515.57672	354.86578	-676.86133	634.75531	384.38351	-732.10114	880.33405	346.67908	-885.55945	992.20923	464.92575	-811.89447	931.51794	431.30734	-756.29614	1341.92249	357.62595	-635.93176	1115.23901	236.36911	-564.98059	1083.15808	36.87997	-662.53571	1288.02991	227.74719	-488.35641	1094.70496	110.56836	-723.30695	873.94214	112.48733	-701.31982	1577.42383	297.80789	-439.72537	1080.6842	183.51094	-683.61011	1332.6051	69.04984	-645.5545	359.31567	353.89896	-525.45868	1112.23108	151.22307	-802.23236	1498.07703	272.06924	-1195.30908	110.85349	185.75777	-782.21338	189.93347	312.99561	-839.41388	184.77562	261.62558	-786.95648	1360.62622	185.52339	-787.51599	861.96271	463.70285	-775.80603	1501.34412	143.91629	-663.01703	1157.89087	-29.44312	-1024.27917	32.54537	158.97127	-868.28998	1211.92932	270.30359	-637.99152	1062.60242	-42.4732	-670.14355	1580.9248	167.66835	-884.77362	932.6712	304.77182	-879.45453	931.18628	157.57614	-853.96216	1063.78479	211.19942	-857.35144	409.55981	88.92715	-1141.92053	117.24997	146.00624	NaN	NaN	NaN	NaN	NaN	NaN	-777.07117	1609.29797	198.93924	NaN	NaN	NaN	NaN	NaN	NaN	NaN	NaN	NaN	NaN	NaN	NaN	NaN	NaN	NaN	NaN	NaN	NaN	NaN	NaN	NaN	NaN	NaN	NaN
36	0.35	-602.1665	81.41591	296.74573	-804.80731	595.63733	58.97139	-819.43713	914.60022	456.68561	-990.98334	280.44849	99.2043	-914.15442	1121.17896	467.07184	-869.13995	1208.73267	442.77435	-506.66345	526.24536	356.33813	-638.75958	646.4809	386.41971	-695.73785	889.34857	348.07443	-858.24866	1005.26453	463.57928	-783.56464	944.72375	431.11307	-723.7514	1349.95361	357.83337	-601.4342	1122.4408	239.15063	-528.27448	1101.04529	40.51271	-628.55878	1295.23755	229.89037	-455.15189	1119.84558	115.40446	-685.64508	878.84155	114.32978	-668.21674	1584.52466	298.96991	-407.63617	1116.57068	190.23969	-648.93475	1341.43982	71.97855	-590.87305	357.54468	356.52759	-494.01379	1139.51123	152.98041	-768.70532	1504.72424	273.06598	-1183.29797	127.06998	184.37639	-707.79736	173.25569	316.0329	-764.55957	162.9265	265.33603	-753.00909	1367.45361	186.55057	-759.47546	875.49866	464.52383	-742.16315	1507.85693	145.01544	-623.60284	1167.14795	-25.27872	-1022.36749	32.46051	159.32574	-834.21478	1219.33704	268.73965	-598.26355	1073.08093	-38.81563	-637.00769	1587.86743	168.73553	-848.79126	940.22339	304.54095	-842.34802	937.39661	157.84836	-818.08466	1070.0946	210.04805	-842.284	419.72162	90.02101	-1131.67126	131.25293	144.71962	NaN	NaN	NaN	NaN	NaN	NaN	-743.90985	1616.10059	199.81477	NaN	NaN	NaN	NaN	NaN	NaN	NaN	NaN	NaN	NaN	NaN	NaN	NaN	NaN	NaN	NaN	NaN	NaN	NaN	NaN	NaN	NaN	NaN	NaN
37	0.36	-519.38586	76.34951	296.46176	-777.70465	604.48889	60.78711	-790.1955	927.01587	455.1405	-977.34003	294.83118	98.84802	-885.73206	1133.50159	464.72	-839.21527	1220.33691	441.03918	-469.87271	534.72595	357.89661	-601.11053	657.65356	388.95438	-658.81226	898.41156	349.25372	-829.56146	1017.73547	461.71463	-754.04034	957.31213	430.37238	-690.68915	1358.08032	358.24673	-566.20978	1130.16895	242.28107	-493.16193	1117.4303	44.20844	-594.47876	1302.76123	232.07219	-423.90274	1143.15381	120.12878	-647.578	884.11652	116.17524	-635.27075	1591.86829	299.77457	-378.38007	1149.95935	195.60031	-614.20123	1350.15771	74.95896	-537.76135	355.28018	359.68515	-464.75381	1164.09692	154.29927	-735.52014	1511.73621	274.21295	-1167.40259	143.87241	183.37978	-633.20007	158.49162	319.11908	-689.1601	143.70284	269.35852	-718.64868	1374.57922	187.79442	-730.1676	888.4292	464.81012	-708.56335	1514.54187	146.1279	-584.75421	1176.59363	-21.44406	-1020.12854	32.33123	159.19319	-800.00262	1227.11487	267.55817	-559.31433	1083.54358	-35.90178	-603.70331	1594.97778	169.88675	-812.1167	947.92065	304.26871	-804.13629	943.68176	158.19398	-782.16882	1076.72021	208.97374	-825.33136	431.01968	91.41264	-1118.21252	145.89499	144.00455	NaN	NaN	NaN	NaN	NaN	NaN	-710.84064	1622.85059	200.67422	NaN	NaN	NaN	NaN	NaN	NaN	NaN	NaN	NaN	NaN	NaN	NaN	NaN	NaN	NaN	NaN	NaN	NaN	NaN	NaN	NaN	NaN	NaN	NaN
38	0.37	-438.73761	73.01863	296.14584	-749.57526	613.7478	62.96557	-759.54364	938.60358	453.25134	-961.43542	309.47092	99.14535	-856.0332	1145.03638	462.2645	-808.13318	1231.42249	439.68851	-434.45703	540.63116	359.66348	-563.63104	667.72675	391.68375	-621.51062	907.1756	350.23694	-799.46436	1029.33264	459.73306	-723.25537	969.13977	429.02008	-657.32037	1366.17444	358.99252	-531.23309	1137.69263	245.13826	-459.64825	1132.98059	47.52962	-560.54852	1310.28589	234.25601	-394.73126	1164.4137	124.83121	-608.90778	889.8855	117.96147	-601.90619	1599.24744	300.78073	-351.65994	1180.26477	200.02745	-579.51135	1358.48425	78.08482	-486.25961	352.36411	363.42105	-437.45291	1185.67932	155.80951	-702.05499	1518.81226	275.29053	-1147.29883	160.48445	182.61218	-558.90369	145.97569	322.30466	-613.21362	126.76949	272.76605	-684.08887	1381.77832	189.11305	-699.43658	900.36847	464.46622	-674.90057	1521.17517	147.3063	-546.5271	1185.90979	-17.95364	-1017.62927	31.76781	158.56258	-765.4165	1235.02808	266.81235	-521.25519	1093.78308	-33.45291	-570.2829	1601.91418	170.88225	-774.78693	955.38434	304.04651	-765.69946	950.07861	158.75417	-745.92853	1083.35498	208.13112	-806.42133	442.97406	93.11862	-1101.16602	159.33578	143.29309	NaN	NaN	NaN	NaN	NaN	NaN	-677.78571	1629.41748	201.51309	NaN	NaN	NaN	NaN	NaN	NaN	NaN	NaN	NaN	NaN	NaN	NaN	NaN	NaN	NaN	NaN	NaN	NaN	NaN	NaN	NaN	NaN	NaN	NaN
39	0.38	-360.56512	71.46783	296.57037	-720.53638	622.91541	65.60197	-727.50024	949.19104	451.32159	-942.78967	324.02182	99.42126	-824.96753	1155.48523	459.92581	-776.12622	1241.59351	438.90042	-401.12723	543.48883	361.10013	-526.68408	675.67816	394.44229	-584.05823	915.3222	351.00977	-767.96185	1039.97144	457.6405	-691.27081	979.8078	427.41202	-623.30615	1373.67126	359.98428	-496.08743	1145.33606	248.147	-427.63696	1147.07629	50.66231	-526.65863	1317.53809	236.49336	-366.98605	1183.22461	129.25757	-570.30804	895.69141	119.81916	-568.47614	1606.19812	301.5423	-326.99835	1206.81836	203.7991	-544.99121	1366.22473	81.29851	-436.42773	349.32559	367.40155	-411.509	1204.24829	157.47697	-668.51929	1525.81067	276.41815	-1122.5957	176.07338	181.37669	-486.21948	136.12506	325.81549	-538.80707	113.63442	276.58176	-649.49072	1388.7196	190.59146	-667.43707	911.17517	463.73477	-641.21985	1527.495	148.485	-508.91724	1194.95642	-14.63457	-1015.95056	30.6569	158.23581	-729.79395	1242.1825	266.85156	-483.92749	1103.33447	-31.41585	-536.63324	1608.28809	171.83864	-736.81262	962.34845	303.89359	-726.66541	956.28253	159.46092	-709.6087	1089.85474	207.4518	-786.00537	455.01456	95.59278	-1080.17188	170.16783	141.56184	NaN	NaN	NaN	NaN	NaN	NaN	-644.25635	1636.08215	202.15132	NaN	NaN	NaN	NaN	NaN	NaN	NaN	NaN	NaN	NaN	NaN	NaN	NaN	NaN	NaN	NaN	NaN	NaN	NaN	NaN	NaN	NaN	NaN	NaN
40	0.39	-285.99954	71.43219	297.90158	-690.84491	631.45428	68.64936	-694.08813	958.67572	449.70975	-920.89783	337.2843	99.78207	-792.67609	1164.47461	457.88684	-743.42279	1250.68152	438.62167	-369.77264	543.31793	362.47852	-491.02499	679.94171	396.58221	-546.66193	922.45105	351.62128	-735.23859	1049.46289	455.91843	-657.79858	989.67096	425.85791	-588.97534	1380.44788	361.311	-460.86465	1152.40686	251.12007	-396.85602	1159.27087	53.52756	-492.89175	1324.14734	238.71021	-339.92062	1198.85022	133.48984	-530.95203	901.4812	121.49924	-534.99219	1612.3512	302.12952	-302.86673	1228.9917	207.27603	-510.7084	1373.2262	84.6742	-388.81479	346.46017	370.69626	-385.50598	1219.55664	158.66037	-635.06201	1532.41357	277.59174	-1093.99988	190.95044	177.87418	-416.05942	129.20087	329.42419	-466.67047	104.34753	280.28058	-614.80518	1394.94385	192.20517	-633.57404	921.06244	462.54532	-607.68408	1533.21594	149.73997	-472.10947	1203.40857	-11.65404	-1011.71716	31.01624	157.5574	-694.48383	1249.1875	267.38052	-447.02109	1112.10583	-29.68857	-502.85272	1613.6947	172.80661	-698.53564	968.65564	303.75235	-687.2663	962.30841	160.17073	-673.38611	1095.97925	206.9156	-764.04272	467.12683	98.9306	-1055.28479	178.57858	137.04492	NaN	NaN	NaN	NaN	NaN	NaN	-610.20959	1642.38013	202.73705	NaN	NaN	NaN	NaN	NaN	NaN	NaN	NaN	NaN	NaN	NaN	NaN	NaN	NaN	NaN	NaN	NaN	NaN	NaN	NaN	NaN	NaN	NaN	NaN
41	0.4	-216.15985	72.5174	300.10684	-660.57928	639.20068	71.92902	-659.25671	966.91687	448.72083	-896.07202	348.91721	100.168	-759.35547	1171.79773	456.56787	-709.92371	1258.13354	439.29971	-339.58173	541.19293	364.32611	-457.78848	680.3902	397.77591	-509.11182	928.35986	352.17474	-701.38068	1057.62878	454.87784	-623.40253	998.22913	424.67822	-554.20941	1385.97571	362.97723	-425.62973	1158.70447	253.99146	-366.26767	1169.10571	56.20324	-459.28793	1329.75354	240.88716	-312.45786	1210.65332	137.57425	-491.87088	905.81464	122.8139	-501.02734	1617.51953	302.96738	-278.39334	1245.75671	210.64281	-476.78751	1379.28967	88.1217	-343.7308	343.80426	373.20053	-359.40213	1231.04773	159.99321	-601.70807	1538.16882	278.84494	-1065.55554	206.12476	169.7536	-349.76471	125.11669	332.84958	-398.31189	98.84267	283.49075	-580.31116	1400.28003	194.12979	-598.11804	929.55646	461.27536	-574.13074	1537.92834	151.04718	-435.94559	1210.98352	-8.80624	-1001.66541	36.49478	158.27098	-659.18884	1255.49524	268.5647	-410.74768	1119.56628	-28.21139	-468.95367	1617.83325	173.85068	-660.11011	974.29462	303.70581	-647.67725	967.79022	160.54422	-637.16669	1101.41479	206.72505	-741.04645	478.62241	101.86804	-1028.0553	186.86469	130.3911	NaN	NaN	NaN	NaN	NaN	NaN	-575.99255	1647.70728	203.26912	NaN	NaN	NaN	NaN	NaN	NaN	NaN	NaN	NaN	NaN	NaN	NaN	NaN	NaN	NaN	NaN	NaN	NaN	NaN	NaN	NaN	NaN	NaN	NaN
